HIERARCHY
ROOT Hips
{
	OFFSET 7.960896 100.257591 -3.909525
	CHANNELS 6 Xposition Yposition Zposition Xrotation Yrotation Zrotation
	JOINT Chest
	{
		OFFSET 4.069217 11.857132 5.385540
		CHANNELS 3 Xrotation Yrotation Zrotation
		JOINT Chest2
		{
			OFFSET 5.306213 17.021065 11.882503
			CHANNELS 3 Xrotation Yrotation Zrotation
			JOINT Chest3
			{
				OFFSET 3.884621 12.944824 6.337279
				CHANNELS 3 Xrotation Yrotation Zrotation
				JOINT Neck
				{
					OFFSET 3.895884 14.798645 8.027357
					CHANNELS 3 Xrotation Yrotation Zrotation
					JOINT Head
					{
						OFFSET 2.191299 9.360092 4.173077
						CHANNELS 3 Xrotation Yrotation Zrotation
						End Site
						{
							OFFSET 2.186991 9.390396 4.106710
						}
					}
				}
				JOINT LeftCollar
				{
					OFFSET 7.405914 9.340179 7.727724
					CHANNELS 3 Xrotation Yrotation Zrotation
					JOINT LeftUpArm
					{
						OFFSET 15.022415 1.822968 -8.916449
						CHANNELS 3 Xrotation Yrotation Zrotation
						JOINT LeftLowArm
						{
							OFFSET 30.567177 -12.826126 -6.392650
							CHANNELS 3 Xrotation Yrotation Zrotation
							JOINT LeftHand
							{
								OFFSET 11.014236 -24.015099 14.244599
								CHANNELS 3 Xrotation Yrotation Zrotation
								End Site
								{
									OFFSET 2.407249 -5.248634 3.113241
								}
							}
						}
					}
				}
				JOINT RightCollar
				{
					OFFSET -0.730589 10.497391 9.543570
					CHANNELS 3 Xrotation Yrotation Zrotation
					JOINT RightUpArm
					{
						OFFSET -16.929770 2.644135 -3.858471
						CHANNELS 3 Xrotation Yrotation Zrotation
						JOINT RightLowArm
						{
							OFFSET -30.705286 -13.891022 1.989798
							CHANNELS 3 Xrotation Yrotation Zrotation
							JOINT RightHand
							{
								OFFSET -14.824896 -18.696831 18.210041
								CHANNELS 3 Xrotation Yrotation Zrotation
								End Site
								{
									OFFSET -3.240128 -4.086365 3.980003
								}
							}
						}
					}
				}
			}
		}
	}
	JOINT LeftUpLeg
	{
		OFFSET 9.564294 -2.678131 -1.330794
		CHANNELS 3 Xrotation Yrotation Zrotation
		JOINT LeftLowLeg
		{
			OFFSET 5.052391 -41.621262 22.048422
			CHANNELS 3 Xrotation Yrotation Zrotation
			JOINT LeftFoot
			{
				OFFSET -4.695944 -33.447937 -29.321522
				CHANNELS 3 Xrotation Yrotation Zrotation
				JOINT LeftToe
				{
					OFFSET 5.493116 -16.155035 16.382919
					CHANNELS 3 Xrotation Yrotation Zrotation
					End Site
					{
						OFFSET 7.775911 -1.520802 22.288589
					}
				}
			}
		}
	}
	JOINT RightUpLeg
	{
		OFFSET -9.564358 2.677963 1.330716
		CHANNELS 3 Xrotation Yrotation Zrotation
		JOINT RightLowLeg
		{
			OFFSET -33.831509 -32.067184 -8.434258
			CHANNELS 3 Xrotation Yrotation Zrotation
			JOINT RightFoot
			{
				OFFSET -24.830574 -19.618275 -31.609270
				CHANNELS 3 Xrotation Yrotation Zrotation
				JOINT RightToe
				{
					OFFSET -15.225025 -17.963959 -2.247566
					CHANNELS 3 Xrotation Yrotation Zrotation
					End Site
					{
						OFFSET -12.611107 -15.036304 13.207027
					}
				}
			}
		}
	}
}
MOTION
Frames: 17
Frame Time: 0.033333
-4.422914 104.663544 -1.111729 -14.341826 -6.286422 14.180377 -9.875488 1.861065 2.742174 1.048690 -0.664372 0.797816 1.189215 -2.316305 -7.900829 4.893461 -2.212906 0.665753 -0.000000 -0.000000 0.000000 1.006432 13.999494 -20.067792 5.979355 16.477761 -40.957106 16.354707 16.686338 22.690197 0.000002 -0.000002 0.000000 2.775278 -9.377852 9.410496 14.605782 -8.728874 32.750217 15.420446 -11.828063 -4.131774 -0.000000 -0.000001 -0.000001 43.740996 -11.043822 -14.962694 -54.758409 5.258642 16.523640 21.446217 -21.970659 -12.049961 -0.000000 0.000000 -0.000001 4.836632 -9.551217 26.736608 -19.978163 12.229388 -0.558018 -13.216676 14.950888 4.866442 -0.000003 -0.000003 -0.000002 
-4.424632 104.664536 -1.114216 -14.753612 -6.667761 14.115679 -9.305699 1.749870 2.596780 0.853144 -0.416064 0.713959 1.243606 -2.151128 -7.602575 5.067430 -2.237526 0.555187 0.000000 -0.000001 0.000000 1.057213 14.817686 -19.712612 5.773184 16.220268 -40.842725 16.719591 16.940392 22.101580 0.000003 -0.000003 0.000003 2.727977 -9.523462 9.303618 14.683353 -8.838149 32.636741 15.548500 -11.913373 -4.029158 -0.000001 -0.000004 -0.000001 44.152713 -11.080998 -15.046304 -54.831294 5.257042 16.571712 21.377524 -21.802978 -11.925684 -0.000000 -0.000002 -0.000000 4.937439 -9.663582 26.700104 -19.702044 12.082600 -0.834159 -13.172356 15.307535 5.238272 -0.000001 -0.000004 -0.000003 
-4.431876 104.665710 -1.113360 -14.260355 -6.911474 14.051892 -10.105715 2.023772 2.663433 1.138505 -0.525610 0.692418 1.239478 -2.320393 -7.639947 5.337898 -2.029710 0.371432 0.000002 -0.000001 0.000000 0.972275 14.760575 -19.544390 5.826010 16.435973 -40.953814 16.569393 17.135534 22.072181 0.000001 -0.000006 0.000004 2.872591 -9.093683 9.454803 14.858844 -9.317835 32.524039 15.252361 -11.650404 -3.950262 -0.000000 0.000001 0.000002 43.887548 -11.036401 -15.055890 -54.815601 5.239645 16.548358 21.168986 -21.721929 -11.911811 -0.000001 0.000000 0.000000 4.688578 -9.565119 26.711034 -20.058394 12.287211 -0.597141 -12.813805 15.034044 5.195080 -0.000003 -0.000003 -0.000000 
-4.440748 104.669167 -1.112930 -14.600822 -6.844542 14.042218 -9.721952 1.922120 2.624520 1.229952 -0.672322 0.727076 0.914058 -2.476449 -7.841814 5.168983 -1.939199 0.301482 -0.000000 -0.000001 0.000000 0.898227 16.093589 -19.110639 5.421196 15.907765 -40.892923 17.169941 17.851154 21.852490 0.000003 -0.000003 0.000004 2.999966 -8.936247 9.636584 14.627595 -8.942218 32.601541 15.292700 -12.008923 -4.383551 -0.000000 -0.000002 -0.000001 44.176578 -11.015337 -15.054779 -54.538056 5.270867 16.602066 21.163360 -21.808345 -12.009481 0.000000 -0.000002 -0.000000 4.900631 -9.680849 26.676103 -19.804444 12.074420 -0.670080 -12.916292 15.125821 5.273239 0.000000 -0.000001 -0.000000 
-4.458115 104.671646 -1.113333 -14.457009 -7.002221 14.043800 -10.115929 2.113953 2.578014 1.358072 -0.719124 0.692227 1.067509 -2.442711 -7.803492 4.882723 -2.061408 0.307346 -0.000000 -0.000000 0.000000 0.829198 16.338405 -19.213259 5.265763 15.755747 -40.691996 17.242918 17.799208 21.790465 0.000003 -0.000001 0.000003 2.920146 -8.888950 9.555269 14.585883 -9.038592 32.619983 15.192914 -11.559233 -4.276284 0.000003 0.000001 -0.000000 43.828197 -10.936571 -15.066559 -54.370164 5.349466 16.559172 20.968793 -21.545538 -11.918991 -0.000001 0.000002 -0.000001 4.625206 -9.582501 26.692685 -19.641203 11.955204 -0.781080 -12.986963 15.225002 5.399959 -0.000003 -0.000003 0.000001 
-4.478879 104.670441 -1.117048 -14.670032 -6.959678 14.127152 -9.692107 2.058794 2.423272 1.111392 -0.628920 0.721515 1.094620 -2.279344 -7.716015 5.400165 -2.302440 0.273376 -0.000000 -0.000000 0.000000 0.777203 16.121009 -19.187034 5.345368 15.922021 -40.715506 17.260873 17.756453 21.614675 0.000000 -0.000001 0.000002 2.634094 -9.583986 9.429535 14.601640 -9.255945 32.324837 15.428216 -11.748086 -4.094300 0.000003 -0.000000 -0.000002 44.032734 -11.002111 -15.039416 -54.138982 5.380494 16.566069 21.038202 -21.609718 -11.962305 -0.000001 0.000002 -0.000000 4.851191 -9.649392 26.666390 -19.491746 11.924313 -0.847595 -12.980455 15.255222 5.742677 0.000000 -0.000003 -0.000000 
-4.506195 104.670242 -1.123638 -14.641508 -7.256676 13.988878 -9.849742 2.136745 2.375071 1.606791 -0.607581 0.593164 0.837568 -2.172476 -7.419375 5.271688 -2.166318 0.282752 -0.000000 -0.000002 -0.000000 0.794462 16.020243 -19.105581 5.353545 15.843326 -40.965463 17.103262 17.517805 21.806200 0.000004 -0.000002 -0.000000 2.741375 -9.377980 9.432387 14.672927 -9.121151 32.419011 15.286686 -11.575729 -4.290812 0.000002 -0.000003 -0.000000 43.934041 -10.980958 -14.887246 -53.988486 5.409374 16.420330 20.924162 -21.458296 -11.860748 -0.000000 0.000000 0.000000 4.876051 -9.612071 26.749136 -19.529078 11.970771 -0.824123 -13.026001 15.386217 5.994497 -0.000001 -0.000004 -0.000003 
-4.527660 104.666702 -1.126842 -14.894725 -7.280878 13.985407 -9.059960 1.920426 2.251308 0.832595 -0.338218 0.700453 1.283784 -2.249465 -7.439580 5.061787 -2.086433 0.386295 -0.000000 -0.000000 0.000000 0.724218 15.999851 -18.915647 5.409024 15.735082 -41.137758 17.456270 17.504289 21.735610 0.000001 0.000000 0.000001 2.647235 -9.333460 9.267064 14.817713 -9.270366 32.465351 15.288637 -11.408648 -4.397976 0.000003 -0.000003 0.000002 44.268901 -11.079108 -14.824359 -54.231241 5.430622 16.416952 21.126176 -21.401074 -11.779770 -0.000000 0.000002 0.000000 5.340569 -9.703131 26.644172 -19.780819 12.012506 -0.634114 -13.056355 15.245621 5.797939 0.000005 -0.000004 -0.000006 
-4.552789 104.666214 -1.126686 -15.002058 -7.470963 13.889521 -8.818229 1.851374 2.213125 0.764332 -0.402806 0.759249 1.138666 -2.148965 -7.502003 5.268324 -2.014214 0.384316 0.000002 -0.000002 0.000001 0.716465 15.947638 -18.804713 5.460861 15.776893 -41.292797 17.469295 17.669162 21.895835 0.000003 0.000002 0.000002 2.673745 -9.177904 9.163192 14.787027 -9.108878 32.608949 15.238044 -11.450425 -4.360143 0.000005 -0.000001 0.000003 44.517913 -11.126552 -14.780423 -54.444671 5.470460 16.502323 21.268724 -21.299002 -11.740373 -0.000001 -0.000002 -0.000000 5.626197 -9.796799 26.606814 -20.084614 12.124771 -0.431884 -12.895824 15.062638 5.783494 -0.000001 -0.000003 0.000001 
-4.576779 104.670235 -1.127774 -14.902252 -7.446139 13.833763 -9.069088 1.854058 2.331929 0.550083 -0.427126 0.806171 1.455012 -2.167129 -7.572387 5.553383 -2.000976 0.270191 -0.000002 -0.000001 -0.000000 0.837973 15.603398 -19.067207 5.321018 15.521624 -41.367184 17.555791 17.823070 22.164717 0.000003 -0.000005 0.000002 2.652598 -9.363057 9.091147 14.835535 -9.027700 32.535934 15.539722 -11.841023 -4.475516 0.000005 -0.000001 -0.000002 44.423287 -11.002124 -14.736686 -54.441505 5.422417 16.526672 21.431638 -21.459975 -11.840136 -0.000001 -0.000002 0.000000 5.430528 -9.796959 26.721805 -20.027566 12.138594 -0.497834 -12.628267 14.946959 5.647629 -0.000007 0.000001 -0.000000 
-4.604765 104.670235 -1.124701 -14.721523 -7.239237 13.985582 -9.475271 2.004870 2.360278 0.832726 -0.524817 0.773813 1.271262 -2.344037 -7.692816 5.525287 -2.049253 0.304864 0.000000 -0.000001 -0.000001 0.875319 16.154574 -18.876963 5.234283 15.201354 -41.506035 17.778118 17.742289 22.100342 0.000003 -0.000004 0.000001 2.650249 -9.614242 9.052600 14.918936 -8.867089 32.489376 15.536705 -11.429620 -4.570822 0.000003 -0.000006 -0.000003 44.278002 -10.985745 -14.803069 -54.552554 5.413256 16.591300 21.519281 -21.658453 -11.939041 -0.000000 0.000000 -0.000000 5.385056 -9.759603 26.683078 -20.271943 12.250567 -0.365216 -12.751094 14.897160 5.327450 0.000000 -0.000003 -0.000000 
-4.627868 104.662872 -1.119595 -15.067954 -7.218916 14.034218 -9.039245 1.880627 2.300261 0.714253 -0.387678 0.744758 1.109757 -2.566148 -7.784798 5.643925 -2.010381 0.265084 -0.000002 -0.000001 0.000000 0.784027 16.113535 -18.767830 5.470498 15.605866 -41.527113 17.497372 17.359747 22.096287 0.000003 -0.000004 0.000005 2.619245 -9.473774 8.989419 15.029456 -9.212767 32.497890 15.616406 -11.366734 -4.479370 -0.000000 0.000002 -0.000005 44.773615 -11.135814 -14.806518 -54.649921 5.413096 16.624979 21.435089 -21.661573 -11.960927 0.000000 -0.000002 0.000000 5.886878 -9.923163 26.593849 -20.491088 12.366240 -0.258294 -12.840085 14.685086 4.917971 -0.000005 -0.000003 -0.000003 
-4.653377 104.656830 -1.117433 -15.189151 -7.356839 14.021656 -8.676895 1.848466 2.146752 0.475131 -0.340071 0.777387 1.178645 -2.277183 -7.566078 5.894008 -2.146799 0.246169 0.000000 -0.000001 -0.000000 0.832214 15.923401 -18.722853 5.570106 15.765257 -41.578121 17.667778 17.678626 22.023788 0.000001 -0.000001 0.000002 2.519092 -9.680043 8.810014 15.161331 -9.294815 32.537375 15.645482 -11.295589 -4.347714 0.000002 0.000000 -0.000002 45.046143 -11.156586 -14.788321 -54.593514 5.457788 16.579613 21.668041 -21.487867 -11.809412 -0.000000 0.000000 0.000000 6.088153 -10.007428 26.534552 -20.477728 12.340007 -0.290039 -12.676537 14.810449 5.218783 -0.000003 -0.000001 -0.000003 
-4.679701 104.652023 -1.109069 -15.114691 -7.340979 13.975347 -9.000442 1.862205 2.276088 0.438330 -0.338719 0.784532 1.225844 -2.603634 -7.817309 5.895812 -1.913893 0.168177 -0.000000 -0.000001 0.000000 0.938017 16.003707 -18.691946 5.686039 15.776933 -41.543099 17.705541 17.582891 22.106845 0.000001 0.000001 0.000003 2.670166 -9.671170 8.927575 15.162948 -9.096183 32.441551 15.882206 -11.467214 -4.332384 -0.000000 -0.000000 -0.000004 45.179898 -11.152066 -14.788107 -54.973061 5.401973 16.703028 21.563708 -21.650696 -11.900204 -0.000000 0.000002 -0.000000 6.308778 -10.133027 26.569895 -20.881842 12.512006 -0.130596 -12.433828 14.831349 5.499845 -0.000001 -0.000003 -0.000003 
-4.704478 104.645264 -1.098698 -14.835306 -7.517587 13.927668 -9.747316 2.067227 2.405543 0.958679 -0.481237 0.717973 1.125367 -2.585042 -7.807594 5.863553 -1.886804 0.154396 0.000002 -0.000000 0.000000 0.795735 16.367297 -18.477523 5.537172 15.660365 -41.594909 17.631727 17.456278 21.968431 0.000003 -0.000001 -0.000001 2.557831 -9.758239 8.896192 15.104656 -9.250306 32.412673 15.851233 -11.447854 -4.227950 0.000000 0.000000 -0.000003 44.607214 -11.070397 -14.769312 -54.547790 5.402410 16.522552 21.331280 -21.250262 -11.771492 -0.000000 0.000002 0.000000 5.939506 -9.964894 26.675263 -20.575093 12.525718 -0.205359 -12.660068 14.774669 5.617317 -0.000007 0.000003 0.000001 
-4.734329 104.642929 -1.092583 -15.652507 -7.567495 13.896009 -8.570581 1.801633 2.147062 0.022580 -0.155105 0.820879 1.583139 -2.860232 -7.871645 5.779453 -1.888019 0.171993 0.000001 -0.000002 -0.000000 0.787505 16.582507 -18.414277 5.356248 15.523953 -41.526830 17.751662 17.950227 21.883156 0.000003 -0.000003 0.000002 2.887938 -8.862534 9.079173 14.943199 -8.994032 32.715151 15.673230 -11.837193 -4.478597 -0.000002 -0.000004 -0.000001 45.454035 -11.229632 -14.661899 -54.817637 5.478082 16.520587 21.238043 -21.031635 -11.648939 -0.000001 0.000002 0.000000 6.517854 -10.169014 26.660477 -20.413062 12.475448 -0.307548 -12.726485 15.006108 5.902346 0.000000 -0.000001 -0.000000 
-4.761314 104.637619 -1.081948 -14.764391 -7.380106 13.913246 -9.931331 2.136335 2.402420 1.468471 -0.632596 0.662707 0.834567 -2.645694 -7.851509 5.287563 -1.783529 0.322173 -0.000004 0.000001 0.000001 0.924796 16.038860 -18.646290 5.359032 15.346955 -41.662020 17.607692 17.653160 22.183223 0.000004 0.000001 0.000004 2.872140 -9.088009 8.959112 14.872885 -8.631747 32.699575 15.759780 -11.800327 -4.343742 0.000003 -0.000006 -0.000002 44.562087 -11.028444 -14.632003 -54.722714 5.386539 16.498284 21.096233 -21.049538 -11.678082 0.000000 -0.000002 -0.000000 5.579150 -9.834968 26.850584 -19.973932 12.233694 -0.439613 -13.046974 15.179689 5.888594 0.000002 -0.000001 -0.000002 
